<?xml version="1.0" encoding="utf-8"?>
<!-- Generator: Adobe Illustrator 13.0.0, SVG Export Plug-In . SVG Version: 6.00 Build 14948)  -->
<!DOCTYPE svg PUBLIC "-//W3C//DTD SVG 1.1//EN" "http://www.w3.org/Graphics/SVG/1.1/DTD/svg11.dtd">
<svg version="1.1" xmlns="http://www.w3.org/2000/svg" xmlns:xlink="http://www.w3.org/1999/xlink" x="0px" y="0px" width="44px"
	 height="44px" viewBox="0 0 44 44" enable-background="new 0 0 44 44" xml:space="preserve">
<g id="图层_2">
</g>
<g id="图层_1">
	<linearGradient id="SVGID_1_" gradientUnits="userSpaceOnUse" x1="-0.4375" y1="21.5" x2="43.4375" y2="21.5">
		<stop  offset="0" style="stop-color:#FFFFFF"/>
		<stop  offset="0.1868" style="stop-color:#ACACAC"/>
		<stop  offset="0.2739" style="stop-color:#A7A7A7"/>
		<stop  offset="0.3867" style="stop-color:#969696"/>
		<stop  offset="0.5131" style="stop-color:#7C7C7C"/>
		<stop  offset="0.544" style="stop-color:#747474"/>
		<stop  offset="1" style="stop-color:#000000"/>
	</linearGradient>
	<circle fill="url(#SVGID_1_)" cx="21.5" cy="21.5" r="21.938"/>
	<path fill="#F40808" d="M17.713,37.778c0,0-14.45,0.758-5.272-14.393c0,0,0.196,3.787,2.148,3.977s6.249-5.303,4.491-12.688
		c0,0,5.859,4.167,6.834,7.385c0.977,3.22,0.977,2.273,1.172,0.189c0.195-2.083,11.326,8.712,0.781,15.908
		c0,0,2.344-5.492,0.586-7.575s-0.391,0.189-1.172,2.083c-0.779,1.895-2.928-4.545-4.686-5.682c-1.758-1.136-0.391,8.9-5.078,7.008
		C12.832,32.097,17.713,37.778,17.713,37.778z"/>
	<path fill="#595A5B" d="M7.41,16.758c-0.386-0.592-0.966-1.772-0.676-2.558c0.483-1.181,1.062-0.296,1.642-0.885
		c0.87-0.886-0.193-2.362,0.87-3.148c0.483-0.394,1.255,0,1.739-0.394c0.482-0.492,0.193-1.181,0.482-1.574
		c0.676-0.787,1.74-0.492,2.608-0.886c0.966-0.59,0.87-1.18,1.643-2.065c0.482-0.59,1.159-1.181,1.933-0.886
		c1.063,0.295,0.387,0.787,0.965,1.378c2.03,2.065,4.54-1.083,6.473,0.394c0.87,0.688,0.289,1.376,0.773,1.967
		c0.772,1.081,2.413,0.885,3.478,0.885c2.222,0.099,5.217,0,5.313,2.853c-0.772,0.295-2.514-0.197-2.994,0.394
		c-0.582,0.689,0.289,1.87-0.484,2.458c-2.224,1.869-3.767-2.754-5.023-3.147c-1.644-0.59-1.738,1.869-2.706,2.559
		c-1.931,1.277-5.699-1.181-5.505-3.247c-2.222,0.197-0.87,1.869-1.545,2.951c-0.484,0.689-0.966,0.491-1.643,0.491
		c-0.966-0.098-0.966-0.491-1.739-0.294c-1.063,0.197-2.319,0.787-2.898,1.278c-0.483,0.394-0.193,0.885-0.87,1.181
		c-0.676,0.296-1.255-0.394-1.739,0.392L7.41,16.758z"/>
	<path fill="#595A5B" d="M28.178,7.216c0.968-1.377,2.031-1.278,3.285-1.082c0.773,0.098,3.093,0.098,2.897,1.376
		c-0.191,1.082-2.702,0.099-3.67,0.099c-0.966,0-2.029,0.59-2.607-0.492L28.178,7.216z"/>
	<path fill="#595A5B" d="M20.259,4.855c0-2.754,0.965-0.688,2.318-0.983c0.386-0.098,0.48-1.082,0.965-1.278
		c0.676-0.295,1.835-0.197,1.933,0.688c0.097,1.278-4.54,2.853-5.216,1.476V4.855z"/>
	<path fill="#595A5B" d="M24.99,14.592c1.16-0.883,1.449,0.787,2.223,1.181c0.87,0.394,2.126-0.394,2.802,0.886
		c0.581,1.181-0.29,1.672-1.354,1.672c-1.352-0.098-1.063-0.689-2.027-1.181c-0.289-0.197-0.772,0.098-1.063-0.098
		c-0.386-0.198-0.581-0.59-0.968-0.688c-0.675-0.394-1.159,0.294-1.062-0.689c0-0.394,1.159-0.491,1.352-1.278L24.99,14.592z"/>
	<path fill="#595A5B" d="M17.937,21.207c-0.142-0.257-0.356-0.773-0.25-1.118c0.181-0.515,0.392-0.127,0.606-0.385
		c0.32-0.388-0.07-1.031,0.32-1.375c0.178-0.171,0.464,0,0.642-0.171c0.178-0.215,0.07-0.516,0.178-0.688
		c0.248-0.342,0.64-0.215,0.959-0.385c0.358-0.258,0.322-0.516,0.606-0.903c0.178-0.258,0.428-0.515,0.712-0.385
		c0.391,0.127,0.142,0.343,0.354,0.601c0.749,0.902,1.674-0.473,2.386,0.172c0.319,0.3,0.108,0.601,0.286,0.858
		c0.284,0.473,0.89,0.386,1.282,0.386c0.817,0.044,1.922,0,1.958,1.245c-0.287,0.13-0.927-0.085-1.104,0.173
		c-0.214,0.3,0.105,0.815-0.178,1.073c-0.82,0.815-1.388-1.204-1.853-1.374c-0.605-0.258-0.64,0.815-0.995,1.116
		c-0.712,0.558-2.101-0.515-2.029-1.416c-0.82,0.085-0.322,0.815-0.57,1.288c-0.178,0.3-0.356,0.215-0.606,0.215
		c-0.356-0.045-0.356-0.215-0.64-0.13c-0.392,0.085-0.856,0.343-1.07,0.558c-0.178,0.173-0.07,0.388-0.32,0.516
		c-0.248,0.13-0.462-0.17-0.64,0.173L17.937,21.207z"/>
</g>
</svg>
